<?xml version="1.0" encoding="utf-8"?>
<!-- Generator: Adobe Illustrator 20.1.0, SVG Export Plug-In . SVG Version: 6.00 Build 0)  -->
<svg version="1.1" id="icons" xmlns="http://www.w3.org/2000/svg" xmlns:xlink="http://www.w3.org/1999/xlink" x="0px" y="0px"
	 viewBox="0 0 4750.9 2484.8" style="enable-background:new 0 0 4750.9 2484.8;" xml:space="preserve">
<style type="text/css">
	.st0{fill:#003976;stroke:#003976;stroke-width:4;stroke-miterlimit:10;}
	.st1{fill:#EF4044;}
	.st2{fill:none;stroke:#EF4044;stroke-width:24.4396;stroke-linecap:round;stroke-linejoin:round;stroke-miterlimit:10;}
	.st3{fill:none;stroke:#003976;stroke-width:24.4396;stroke-linecap:round;stroke-linejoin:round;stroke-miterlimit:10;}
	.st4{fill:none;stroke:#EF4044;stroke-width:12;stroke-miterlimit:10;stroke-dasharray:25,25;}
</style>
<g>
	<g>
		<path class="st0" d="M2018.5,1158.5c-68.3,0-123.9-55.6-123.9-123.9s55.6-123.9,123.9-123.9c34.3,0,66.3,13.7,89.9,38.6
			c2.9,3,2.7,7.8-0.3,10.6c-3,2.8-7.8,2.7-10.6-0.3c-20.8-21.9-48.8-34-79-34c-60.1,0-108.9,48.9-108.9,108.9
			s48.9,108.9,108.9,108.9c45.7,0,86.9-28.9,102.4-71.8c1.4-3.9,5.7-5.9,9.6-4.5c3.9,1.4,5.9,5.7,4.5,9.6
			C2117.3,1125.6,2070.5,1158.5,2018.5,1158.5z"/>
		<path class="st0" d="M2018.5,1284.1c-4.1,0-7.5-3.4-7.5-7.5V968.1c0-4.1,3.4-7.5,7.5-7.5s7.5,3.4,7.5,7.5v308.5
			C2026,1280.7,2022.6,1284.1,2018.5,1284.1z"/>
		<g>
			<path class="st0" d="M2018.8,1107.3c-1.9,0-3.8-0.7-5.3-2.2l-67.1-67.1c-2.9-2.9-2.9-7.7,0-10.6c2.9-2.9,7.7-2.9,10.6,0
				l61.8,61.8l61.8-61.8c2.9-2.9,7.7-2.9,10.6,0c2.9,2.9,2.9,7.7,0,10.6l-67.1,67.1C2022.6,1106.6,2020.7,1107.3,2018.8,1107.3z"/>
			<path class="st0" d="M2018.8,1026.9L2018.8,1026.9c-2,0-3.9-0.8-5.3-2.2l-29.7-29.7c-2.9-2.9-2.9-7.7,0-10.6
				c2.9-2.9,7.7-2.9,10.6,0l24.4,24.4l24.4-24.4c2.9-2.9,7.7-2.9,10.6,0c2.9,2.9,2.9,7.7,0,10.6l-29.7,29.7
				C2022.7,1026.1,2020.8,1026.9,2018.8,1026.9z"/>
		</g>
	</g>
	<g>
		<path class="st0" d="M2510.1,1158.5c-52,0-98.9-32.8-116.5-81.7c-1.4-3.9,0.6-8.2,4.5-9.6c3.9-1.4,8.2,0.6,9.6,4.5
			c15.6,43,56.7,71.8,102.4,71.8c60.1,0,108.9-48.9,108.9-108.9s-48.9-108.9-108.9-108.9c-30.2,0-58.2,12.1-79,34
			c-2.9,3-7.6,3.1-10.6,0.3c-3-2.9-3.1-7.6-0.3-10.6c23.6-24.9,55.6-38.6,89.9-38.6c68.3,0,123.9,55.6,123.9,123.9
			S2578.4,1158.5,2510.1,1158.5z"/>
		<path class="st0" d="M2510.1,1284.1c-4.1,0-7.5-3.4-7.5-7.5V968.1c0-4.1,3.4-7.5,7.5-7.5c4.1,0,7.5,3.4,7.5,7.5v308.5
			C2517.6,1280.7,2514.2,1284.1,2510.1,1284.1z"/>
		<g>
			<path class="st0" d="M2509.7,1107.3c-2,0-3.9-0.8-5.3-2.2l-67.1-67.1c-2.9-2.9-2.9-7.7,0-10.6c2.9-2.9,7.7-2.9,10.6,0l61.8,61.8
				l61.8-61.8c2.9-2.9,7.7-2.9,10.6,0c2.9,2.9,2.9,7.7,0,10.6l-67.1,67.1C2513.6,1106.5,2511.7,1107.3,2509.7,1107.3z"/>
			<path class="st0" d="M2509.7,1026.9c-2,0-3.9-0.8-5.3-2.2l-29.7-29.7c-2.9-2.9-2.9-7.7,0-10.6c2.9-2.9,7.7-2.9,10.6,0l24.4,24.4
				l24.4-24.4c2.9-2.9,7.7-2.9,10.6,0c2.9,2.9,2.9,7.7,0,10.6l-29.7,29.7C2513.6,1026.1,2511.7,1026.9,2509.7,1026.9z"/>
		</g>
	</g>
	<path class="st0" d="M2263.9,1153.1c-94.1,0-170.6-76.5-170.6-170.6c0-94.1,76.5-170.6,170.6-170.6s170.6,76.5,170.6,170.6
		C2434.5,1076.6,2358,1153.1,2263.9,1153.1z M2263.9,827c-85.8,0-155.6,69.8-155.6,155.6c0,85.8,69.8,155.6,155.6,155.6
		c85.8,0,155.6-69.8,155.6-155.6C2419.5,896.8,2349.7,827,2263.9,827z"/>
	<path class="st0" d="M2263.9,1284.1c-4.1,0-7.5-3.4-7.5-7.5V869.5c0-4.1,3.4-7.5,7.5-7.5s7.5,3.4,7.5,7.5v407.1
		C2271.4,1280.7,2268.1,1284.1,2263.9,1284.1z"/>
	<g>
		<path class="st0" d="M2264.3,1097.6c-2,0-3.9-0.8-5.3-2.2l-121.6-121.6c-2.9-2.9-2.9-7.7,0-10.6c2.9-2.9,7.7-2.9,10.6,0
			l116.3,116.3l116.3-116.3c2.9-2.9,7.7-2.9,10.6,0c2.9,2.9,2.9,7.7,0,10.6l-121.6,121.6C2268.2,1096.9,2266.3,1097.6,2264.3,1097.6
			z"/>
		<path class="st0" d="M2264.3,1008.6c-2,0-3.9-0.8-5.3-2.2l-67.1-67.1c-2.9-2.9-2.9-7.7,0-10.6c2.9-2.9,7.7-2.9,10.6,0l61.8,61.8
			l61.8-61.8c2.9-2.9,7.7-2.9,10.6,0c2.9,2.9,2.9,7.7,0,10.6l-67.1,67.1C2268.2,1007.9,2266.3,1008.6,2264.3,1008.6z"/>
		<path class="st0" d="M2264.3,928.2c-1.9,0-3.8-0.7-5.3-2.2l-29.7-29.7c-2.9-2.9-2.9-7.7,0-10.6c2.9-2.9,7.7-2.9,10.6,0l24.4,24.4
			l24.4-24.4c2.9-2.9,7.7-2.9,10.6,0c2.9,2.9,2.9,7.7,0,10.6l-29.7,29.7C2268.1,927.5,2266.2,928.2,2264.3,928.2z"/>
	</g>
</g>
<g>
	<path class="st0" d="M3230,530.4h-312.7c-4.1,0-7.5-3.4-7.5-7.5V416.1c0-4.1,3.4-7.5,7.5-7.5H3230c4.1,0,7.5,3.4,7.5,7.5v106.8
		C3237.5,527.1,3234.2,530.4,3230,530.4z M2924.9,515.4h297.7v-91.8h-297.7V515.4z"/>
	<path class="st0" d="M3332.5,1284.1h-517.6c-4.1,0-7.5-3.4-7.5-7.5V522.9c0-4.1,3.4-7.5,7.5-7.5h517.6c4.1,0,7.5,3.4,7.5,7.5v753.7
		C3340,1280.7,3336.6,1284.1,3332.5,1284.1z M2822.4,1269.1H3325V530.4h-502.6V1269.1z"/>
	<path class="st0" d="M3167.2,423.6h-187c-2.6,0-5-1.4-6.4-3.6c-1.4-2.2-1.5-5-0.3-7.3l26.2-50.9c1.3-2.5,3.9-4.1,6.7-4.1h131.9
		c2.7,0,5.2,1.5,6.5,3.8l28.9,50.9c1.3,2.3,1.3,5.2,0,7.5C3172.3,422.2,3169.8,423.6,3167.2,423.6z M2992.5,408.6h161.8l-20.4-35.9
		H3011L2992.5,408.6z"/>
	<path class="st0" d="M3138.3,372.7h-129.2c-4.1,0-7.5-3.4-7.5-7.5v-85.3c0-1.9,0.7-3.7,2-5.1l64.6-70.6c1.4-1.6,3.4-2.4,5.5-2.4
		c2.1,0,4.1,0.9,5.5,2.4l64.6,70.6c1.3,1.4,2,3.2,2,5.1v85.3C3145.8,369.3,3142.4,372.7,3138.3,372.7z M3016.6,357.7h114.2v-74.9
		l-57.1-62.4l-57.1,62.4V357.7z"/>
	<path class="st0" d="M3073.7,421.8c-4.1,0-7.5-3.4-7.5-7.5V158.9c0-4.1,3.4-7.5,7.5-7.5s7.5,3.4,7.5,7.5v255.4
		C3081.2,418.4,3077.8,421.8,3073.7,421.8z"/>
	<g>
		<path class="st0" d="M2919.6,653.2H2875c-4.1,0-7.5-3.4-7.5-7.5v-65.2c0-4.1,3.4-7.5,7.5-7.5h44.6c4.1,0,7.5,3.4,7.5,7.5v65.2
			C2927.1,649.9,2923.8,653.2,2919.6,653.2z M2882.5,638.2h29.6V588h-29.6V638.2z"/>
		<path class="st0" d="M3007.8,653.2h-44.6c-4.1,0-7.5-3.4-7.5-7.5v-65.2c0-4.1,3.4-7.5,7.5-7.5h44.6c4.1,0,7.5,3.4,7.5,7.5v65.2
			C3015.3,649.9,3011.9,653.2,3007.8,653.2z M2970.7,638.2h29.6V588h-29.6V638.2z"/>
		<path class="st0" d="M3096,653.2h-44.6c-4.1,0-7.5-3.4-7.5-7.5v-65.2c0-4.1,3.4-7.5,7.5-7.5h44.6c4.1,0,7.5,3.4,7.5,7.5v65.2
			C3103.5,649.9,3100.1,653.2,3096,653.2z M3058.9,638.2h29.6V588h-29.6V638.2z"/>
		<path class="st0" d="M3184.2,653.2h-44.6c-4.1,0-7.5-3.4-7.5-7.5v-65.2c0-4.1,3.4-7.5,7.5-7.5h44.6c4.1,0,7.5,3.4,7.5,7.5v65.2
			C3191.7,649.9,3188.3,653.2,3184.2,653.2z M3147.1,638.2h29.6V588h-29.6V638.2z"/>
		<path class="st0" d="M3272.3,653.2h-44.6c-4.1,0-7.5-3.4-7.5-7.5v-65.2c0-4.1,3.4-7.5,7.5-7.5h44.6c4.1,0,7.5,3.4,7.5,7.5v65.2
			C3279.8,649.9,3276.5,653.2,3272.3,653.2z M3235.2,638.2h29.6V588h-29.6V638.2z"/>
	</g>
	<g>
		<path class="st0" d="M2919.6,763.8H2875c-4.1,0-7.5-3.4-7.5-7.5v-65.2c0-4.1,3.4-7.5,7.5-7.5h44.6c4.1,0,7.5,3.4,7.5,7.5v65.2
			C2927.1,760.5,2923.8,763.8,2919.6,763.8z M2882.5,748.8h29.6v-50.2h-29.6V748.8z"/>
		<path class="st0" d="M3007.8,763.8h-44.6c-4.1,0-7.5-3.4-7.5-7.5v-65.2c0-4.1,3.4-7.5,7.5-7.5h44.6c4.1,0,7.5,3.4,7.5,7.5v65.2
			C3015.3,760.5,3011.9,763.8,3007.8,763.8z M2970.7,748.8h29.6v-50.2h-29.6V748.8z"/>
		<path class="st0" d="M3096,763.8h-44.6c-4.1,0-7.5-3.4-7.5-7.5v-65.2c0-4.1,3.4-7.5,7.5-7.5h44.6c4.1,0,7.5,3.4,7.5,7.5v65.2
			C3103.5,760.5,3100.1,763.8,3096,763.8z M3058.9,748.8h29.6v-50.2h-29.6V748.8z"/>
		<path class="st0" d="M3184.2,763.8h-44.6c-4.1,0-7.5-3.4-7.5-7.5v-65.2c0-4.1,3.4-7.5,7.5-7.5h44.6c4.1,0,7.5,3.4,7.5,7.5v65.2
			C3191.7,760.5,3188.3,763.8,3184.2,763.8z M3147.1,748.8h29.6v-50.2h-29.6V748.8z"/>
		<path class="st0" d="M3272.3,763.8h-44.6c-4.1,0-7.5-3.4-7.5-7.5v-65.2c0-4.1,3.4-7.5,7.5-7.5h44.6c4.1,0,7.5,3.4,7.5,7.5v65.2
			C3279.8,760.5,3276.5,763.8,3272.3,763.8z M3235.2,748.8h29.6v-50.2h-29.6V748.8z"/>
	</g>
	<g>
		<path class="st0" d="M2919.6,985.1H2875c-4.1,0-7.5-3.4-7.5-7.5v-65.2c0-4.1,3.4-7.5,7.5-7.5h44.6c4.1,0,7.5,3.4,7.5,7.5v65.2
			C2927.1,981.7,2923.8,985.1,2919.6,985.1z M2882.5,970.1h29.6v-50.2h-29.6V970.1z"/>
		<path class="st0" d="M3007.8,985.1h-44.6c-4.1,0-7.5-3.4-7.5-7.5v-65.2c0-4.1,3.4-7.5,7.5-7.5h44.6c4.1,0,7.5,3.4,7.5,7.5v65.2
			C3015.3,981.7,3011.9,985.1,3007.8,985.1z M2970.7,970.1h29.6v-50.2h-29.6V970.1z"/>
		<path class="st0" d="M3096,985.1h-44.6c-4.1,0-7.5-3.4-7.5-7.5v-65.2c0-4.1,3.4-7.5,7.5-7.5h44.6c4.1,0,7.5,3.4,7.5,7.5v65.2
			C3103.5,981.7,3100.1,985.1,3096,985.1z M3058.9,970.1h29.6v-50.2h-29.6V970.1z"/>
		<path class="st0" d="M3184.2,985.1h-44.6c-4.1,0-7.5-3.4-7.5-7.5v-65.2c0-4.1,3.4-7.5,7.5-7.5h44.6c4.1,0,7.5,3.4,7.5,7.5v65.2
			C3191.7,981.7,3188.3,985.1,3184.2,985.1z M3147.1,970.1h29.6v-50.2h-29.6V970.1z"/>
		<path class="st0" d="M3272.3,985.1h-44.6c-4.1,0-7.5-3.4-7.5-7.5v-65.2c0-4.1,3.4-7.5,7.5-7.5h44.6c4.1,0,7.5,3.4,7.5,7.5v65.2
			C3279.8,981.7,3276.5,985.1,3272.3,985.1z M3235.2,970.1h29.6v-50.2h-29.6V970.1z"/>
	</g>
	<g>
		<path class="st0" d="M2919.6,1206.3H2875c-4.1,0-7.5-3.4-7.5-7.5v-65.2c0-4.1,3.4-7.5,7.5-7.5h44.6c4.1,0,7.5,3.4,7.5,7.5v65.2
			C2927.1,1202.9,2923.8,1206.3,2919.6,1206.3z M2882.5,1191.3h29.6v-50.2h-29.6V1191.3z"/>
		<path class="st0" d="M3007.8,1206.3h-44.6c-4.1,0-7.5-3.4-7.5-7.5v-65.2c0-4.1,3.4-7.5,7.5-7.5h44.6c4.1,0,7.5,3.4,7.5,7.5v65.2
			C3015.3,1202.9,3011.9,1206.3,3007.8,1206.3z M2970.7,1191.3h29.6v-50.2h-29.6V1191.3z"/>
		<path class="st0" d="M3096,1206.3h-44.6c-4.1,0-7.5-3.4-7.5-7.5v-65.2c0-4.1,3.4-7.5,7.5-7.5h44.6c4.1,0,7.5,3.4,7.5,7.5v65.2
			C3103.5,1202.9,3100.1,1206.3,3096,1206.3z M3058.9,1191.3h29.6v-50.2h-29.6V1191.3z"/>
		<path class="st0" d="M3184.2,1206.3h-44.6c-4.1,0-7.5-3.4-7.5-7.5v-65.2c0-4.1,3.4-7.5,7.5-7.5h44.6c4.1,0,7.5,3.4,7.5,7.5v65.2
			C3191.7,1202.9,3188.3,1206.3,3184.2,1206.3z M3147.1,1191.3h29.6v-50.2h-29.6V1191.3z"/>
		<path class="st0" d="M3272.3,1206.3h-44.6c-4.1,0-7.5-3.4-7.5-7.5v-65.2c0-4.1,3.4-7.5,7.5-7.5h44.6c4.1,0,7.5,3.4,7.5,7.5v65.2
			C3279.8,1202.9,3276.5,1206.3,3272.3,1206.3z M3235.2,1191.3h29.6v-50.2h-29.6V1191.3z"/>
	</g>
	<g>
		<path class="st0" d="M3272.3,809.3H2875c-4.1,0-7.5-3.4-7.5-7.5c0-4.1,3.4-7.5,7.5-7.5h397.3c4.1,0,7.5,3.4,7.5,7.5
			C3279.8,805.9,3276.5,809.3,3272.3,809.3z"/>
		<path class="st0" d="M3272.3,874.5H2875c-4.1,0-7.5-3.4-7.5-7.5s3.4-7.5,7.5-7.5h397.3c4.1,0,7.5,3.4,7.5,7.5
			S3276.5,874.5,3272.3,874.5z"/>
		<path class="st0" d="M3272.3,841.9H2875c-4.1,0-7.5-3.4-7.5-7.5c0-4.1,3.4-7.5,7.5-7.5h397.3c4.1,0,7.5,3.4,7.5,7.5
			C3279.8,838.5,3276.5,841.9,3272.3,841.9z"/>
	</g>
	<g>
		<path class="st0" d="M3180.5,460.7h-213.5c-4.1,0-7.5-3.4-7.5-7.5s3.4-7.5,7.5-7.5h213.5c4.1,0,7.5,3.4,7.5,7.5
			S3184.6,460.7,3180.5,460.7z"/>
		<path class="st0" d="M3180.5,493.3h-213.5c-4.1,0-7.5-3.4-7.5-7.5c0-4.1,3.4-7.5,7.5-7.5h213.5c4.1,0,7.5,3.4,7.5,7.5
			C3188,490,3184.6,493.3,3180.5,493.3z"/>
	</g>
	<g>
		<path class="st0" d="M3272.3,1030.5H2875c-4.1,0-7.5-3.4-7.5-7.5c0-4.1,3.4-7.5,7.5-7.5h397.3c4.1,0,7.5,3.4,7.5,7.5
			C3279.8,1027.1,3276.5,1030.5,3272.3,1030.5z"/>
		<path class="st0" d="M3272.3,1095.7H2875c-4.1,0-7.5-3.4-7.5-7.5s3.4-7.5,7.5-7.5h397.3c4.1,0,7.5,3.4,7.5,7.5
			S3276.5,1095.7,3272.3,1095.7z"/>
		<path class="st0" d="M3272.3,1063.1H2875c-4.1,0-7.5-3.4-7.5-7.5s3.4-7.5,7.5-7.5h397.3c4.1,0,7.5,3.4,7.5,7.5
			S3276.5,1063.1,3272.3,1063.1z"/>
	</g>
</g>
<g>
	<path class="st0" d="M1618.1,1284.1h-326.2c-4.1,0-7.5-3.4-7.5-7.5V648.2c0-4.1,3.4-7.5,7.5-7.5h326.2c4.1,0,7.5,3.4,7.5,7.5v628.4
		C1625.6,1280.7,1622.3,1284.1,1618.1,1284.1z M1299.4,1269.1h311.2V655.7h-311.2V1269.1z"/>
	<path class="st0" d="M1549.3,655.7h-188.4c-4.1,0-7.5-3.4-7.5-7.5V442.8c0-4.1,3.4-7.5,7.5-7.5h188.4c4.1,0,7.5,3.4,7.5,7.5v205.4
		C1556.8,652.3,1553.4,655.7,1549.3,655.7z M1368.3,640.7h173.4V450.3h-173.4V640.7z"/>
	<path class="st0" d="M1549.3,450.3h-188.4c-2.5,0-4.9-1.3-6.3-3.4c-1.4-2.1-1.6-4.8-0.6-7.1l94.2-215.4c1.2-2.7,3.9-4.5,6.9-4.5
		c3,0,5.7,1.8,6.9,4.5l94.2,215.4c1,2.3,0.8,5-0.6,7.1C1554.2,449,1551.8,450.3,1549.3,450.3z M1372.3,435.3h165.5L1455,246
		L1372.3,435.3z"/>
	<path class="st0" d="M1291.9,1284.1h-135.8c-4.1,0-7.5-3.4-7.5-7.5V756.2c0-4.1,3.4-7.5,7.5-7.5h135.8c4.1,0,7.5,3.4,7.5,7.5v520.4
		C1299.4,1280.7,1296.1,1284.1,1291.9,1284.1z M1163.7,1269.1h120.8V763.7h-120.8V1269.1z"/>
	<path class="st0" d="M1753.9,1284.1h-135.8c-4.1,0-7.5-3.4-7.5-7.5V756.2c0-4.1,3.4-7.5,7.5-7.5h135.8c4.1,0,7.5,3.4,7.5,7.5v520.4
		C1761.4,1280.7,1758,1284.1,1753.9,1284.1z M1625.6,1269.1h120.8V763.7h-120.8V1269.1z"/>
	<path class="st0" d="M1392.8,815h-52.9c-4.1,0-7.5-3.4-7.5-7.5V706.6c0-4.1,3.4-7.5,7.5-7.5h52.9c4.1,0,7.5,3.4,7.5,7.5v100.9
		C1400.3,811.6,1397,815,1392.8,815z M1347.4,800h37.9v-85.9h-37.9V800z"/>
	<path class="st0" d="M1481.5,815h-52.9c-4.1,0-7.5-3.4-7.5-7.5V706.6c0-4.1,3.4-7.5,7.5-7.5h52.9c4.1,0,7.5,3.4,7.5,7.5v100.9
		C1489,811.6,1485.7,815,1481.5,815z M1436.1,800h37.9v-85.9h-37.9V800z"/>
	<path class="st0" d="M1481.5,603.4h-52.9c-4.1,0-7.5-3.4-7.5-7.5V495c0-4.1,3.4-7.5,7.5-7.5h52.9c4.1,0,7.5,3.4,7.5,7.5v100.9
		C1489,600,1485.7,603.4,1481.5,603.4z M1436.1,588.4h37.9v-85.9h-37.9V588.4z"/>
	<path class="st0" d="M1570.2,815h-52.9c-4.1,0-7.5-3.4-7.5-7.5V706.6c0-4.1,3.4-7.5,7.5-7.5h52.9c4.1,0,7.5,3.4,7.5,7.5v100.9
		C1577.7,811.6,1574.3,815,1570.2,815z M1524.8,800h37.9v-85.9h-37.9V800z"/>
	<g>
		<path class="st0" d="M1339.9,910.8c-4.1,0-7.5-3.4-7.5-7.5v-60.1c0-4.1,3.4-7.5,7.5-7.5c4.1,0,7.5,3.4,7.5,7.5v60.1
			C1347.4,907.5,1344,910.8,1339.9,910.8z"/>
		<path class="st0" d="M1385.9,910.8c-4.1,0-7.5-3.4-7.5-7.5v-60.1c0-4.1,3.4-7.5,7.5-7.5c4.1,0,7.5,3.4,7.5,7.5v60.1
			C1393.4,907.5,1390.1,910.8,1385.9,910.8z"/>
		<path class="st0" d="M1432,910.8c-4.1,0-7.5-3.4-7.5-7.5v-60.1c0-4.1,3.4-7.5,7.5-7.5c4.1,0,7.5,3.4,7.5,7.5v60.1
			C1439.5,907.5,1436.2,910.8,1432,910.8z"/>
		<path class="st0" d="M1478.1,910.8c-4.1,0-7.5-3.4-7.5-7.5v-60.1c0-4.1,3.4-7.5,7.5-7.5c4.1,0,7.5,3.4,7.5,7.5v60.1
			C1485.6,907.5,1482.2,910.8,1478.1,910.8z"/>
		<path class="st0" d="M1524.1,910.8c-4.1,0-7.5-3.4-7.5-7.5v-60.1c0-4.1,3.4-7.5,7.5-7.5c4.1,0,7.5,3.4,7.5,7.5v60.1
			C1531.6,907.5,1528.3,910.8,1524.1,910.8z"/>
		<path class="st0" d="M1570.2,910.8c-4.1,0-7.5-3.4-7.5-7.5v-60.1c0-4.1,3.4-7.5,7.5-7.5c4.1,0,7.5,3.4,7.5,7.5v60.1
			C1577.7,907.5,1574.3,910.8,1570.2,910.8z"/>
	</g>
	<g>
		<path class="st0" d="M1339.9,1010.7c-4.1,0-7.5-3.4-7.5-7.5v-60.1c0-4.1,3.4-7.5,7.5-7.5c4.1,0,7.5,3.4,7.5,7.5v60.1
			C1347.4,1007.3,1344,1010.7,1339.9,1010.7z"/>
		<path class="st0" d="M1385.9,1010.7c-4.1,0-7.5-3.4-7.5-7.5v-60.1c0-4.1,3.4-7.5,7.5-7.5c4.1,0,7.5,3.4,7.5,7.5v60.1
			C1393.4,1007.3,1390.1,1010.7,1385.9,1010.7z"/>
		<path class="st0" d="M1432,1010.7c-4.1,0-7.5-3.4-7.5-7.5v-60.1c0-4.1,3.4-7.5,7.5-7.5c4.1,0,7.5,3.4,7.5,7.5v60.1
			C1439.5,1007.3,1436.2,1010.7,1432,1010.7z"/>
		<path class="st0" d="M1478.1,1010.7c-4.1,0-7.5-3.4-7.5-7.5v-60.1c0-4.1,3.4-7.5,7.5-7.5c4.1,0,7.5,3.4,7.5,7.5v60.1
			C1485.6,1007.3,1482.2,1010.7,1478.1,1010.7z"/>
		<path class="st0" d="M1524.1,1010.7c-4.1,0-7.5-3.4-7.5-7.5v-60.1c0-4.1,3.4-7.5,7.5-7.5c4.1,0,7.5,3.4,7.5,7.5v60.1
			C1531.6,1007.3,1528.3,1010.7,1524.1,1010.7z"/>
		<path class="st0" d="M1570.2,1010.7c-4.1,0-7.5-3.4-7.5-7.5v-60.1c0-4.1,3.4-7.5,7.5-7.5c4.1,0,7.5,3.4,7.5,7.5v60.1
			C1577.7,1007.3,1574.3,1010.7,1570.2,1010.7z"/>
	</g>
	<g>
		<g>
			<path class="st0" d="M1201,887c-4.1,0-7.5-3.4-7.5-7.5v-60.1c0-4.1,3.4-7.5,7.5-7.5c4.1,0,7.5,3.4,7.5,7.5v60.1
				C1208.5,883.7,1205.2,887,1201,887z"/>
			<path class="st0" d="M1247.1,887c-4.1,0-7.5-3.4-7.5-7.5v-60.1c0-4.1,3.4-7.5,7.5-7.5c4.1,0,7.5,3.4,7.5,7.5v60.1
				C1254.6,883.7,1251.2,887,1247.1,887z"/>
		</g>
		<g>
			<path class="st0" d="M1201,994.8c-4.1,0-7.5-3.4-7.5-7.5v-60.1c0-4.1,3.4-7.5,7.5-7.5c4.1,0,7.5,3.4,7.5,7.5v60.1
				C1208.5,991.4,1205.2,994.8,1201,994.8z"/>
			<path class="st0" d="M1247.1,994.8c-4.1,0-7.5-3.4-7.5-7.5v-60.1c0-4.1,3.4-7.5,7.5-7.5c4.1,0,7.5,3.4,7.5,7.5v60.1
				C1254.6,991.4,1251.2,994.8,1247.1,994.8z"/>
		</g>
	</g>
	<g>
		<g>
			<path class="st0" d="M1663,887c-4.1,0-7.5-3.4-7.5-7.5v-60.1c0-4.1,3.4-7.5,7.5-7.5c4.1,0,7.5,3.4,7.5,7.5v60.1
				C1670.5,883.7,1667.1,887,1663,887z"/>
			<path class="st0" d="M1709.1,887c-4.1,0-7.5-3.4-7.5-7.5v-60.1c0-4.1,3.4-7.5,7.5-7.5c4.1,0,7.5,3.4,7.5,7.5v60.1
				C1716.6,883.7,1713.2,887,1709.1,887z"/>
		</g>
		<g>
			<path class="st0" d="M1663,994.8c-4.1,0-7.5-3.4-7.5-7.5v-60.1c0-4.1,3.4-7.5,7.5-7.5c4.1,0,7.5,3.4,7.5,7.5v60.1
				C1670.5,991.4,1667.1,994.8,1663,994.8z"/>
			<path class="st0" d="M1709.1,994.8c-4.1,0-7.5-3.4-7.5-7.5v-60.1c0-4.1,3.4-7.5,7.5-7.5c4.1,0,7.5,3.4,7.5,7.5v60.1
				C1716.6,991.4,1713.2,994.8,1709.1,994.8z"/>
		</g>
	</g>
	<path class="st0" d="M1455,234.8c-4.1,0-7.5-3.4-7.5-7.5v-68.5c0-4.1,3.4-7.5,7.5-7.5c4.1,0,7.5,3.4,7.5,7.5v68.5
		C1462.5,231.5,1459.2,234.8,1455,234.8z"/>
	<path class="st0" d="M1411.7,450.3c-0.5,0-1-0.1-1.5-0.2c-4.1-0.8-6.7-4.8-5.8-8.9l44-212.7c0.8-4.1,4.8-6.7,8.9-5.8
		c4.1,0.8,6.7,4.8,5.8,8.9l-44,212.7C1418.3,447.8,1415.1,450.3,1411.7,450.3z"/>
	<path class="st0" d="M1499,450.3c-3.5,0-6.6-2.4-7.3-6l-44-212.7c-0.8-4.1,1.8-8,5.8-8.9c4.1-0.8,8,1.8,8.9,5.8l44,212.7
		c0.8,4.1-1.8,8-5.8,8.9C1500,450.2,1499.5,450.3,1499,450.3z"/>
	<path class="st0" d="M1513.3,1284.1h-112.2c-4.1,0-7.5-3.4-7.5-7.5V1111c0-4.1,3.4-7.5,7.5-7.5h112.2c4.1,0,7.5,3.4,7.5,7.5v165.6
		C1520.8,1280.7,1517.5,1284.1,1513.3,1284.1z M1408.7,1269.1h97.2v-150.6h-97.2V1269.1z"/>
</g>
<g>
	<g>
		<g>
			<g>
				<g>
					<g>
						<path class="st1" d="M747.1,1284.1H390.2c-7.4,0-13.4-6-13.4-13.4v-227.1c0-7.4,6-13.4,13.4-13.4c7.4,0,13.4,6,13.4,13.4
							v213.7h330.2l0.8-208.9c0-7.4,6-13.3,13.4-13.3c0,0,0,0,0.1,0c7.4,0,13.3,6,13.3,13.4l-0.9,222.2
							C760.4,1278.2,754.4,1284.1,747.1,1284.1z"/>
					</g>
				</g>
			</g>
		</g>
	</g>
	<g>
		<g>
			<g>
				<g>
					<g>
						<g>
							<path class="st1" d="M794.6,1033.3c-3,0-6.1-1-8.6-3.1l-55.9-46.9c-5.7-4.7-6.4-13.2-1.7-18.8c4.7-5.7,13.2-6.4,18.8-1.7
								l55.9,46.9c5.7,4.7,6.4,13.2,1.7,18.8C802.2,1031.7,798.4,1033.3,794.6,1033.3z"/>
						</g>
					</g>
				</g>
			</g>
		</g>
		<g>
			<g>
				<g>
					<g>
						<g>
							<path class="st1" d="M344.9,1026.5c-3.9,0-7.8-1.7-10.4-5c-4.6-5.8-3.7-14.2,2.1-18.8l225.6-181.2c5-4,12.1-3.9,17,0.2
								c0.6,0.5,58.4,49.6,108.6,91.7c5.7,4.7,6.4,13.2,1.7,18.8c-4.7,5.6-13.2,6.4-18.8,1.7c-38.9-32.6-82.4-69.4-100.3-84.6
								l-217,174.3C350.8,1025.6,347.8,1026.5,344.9,1026.5z"/>
						</g>
					</g>
				</g>
			</g>
		</g>
		<g>
			<g>
				<g>
					<g>
						<g>
							<path class="st1" d="M732.2,979.5c-7.4,0-13.4-6-13.4-13.4V851.3c0-7.4,6-13.4,13.4-13.4c7.4,0,13.4,6,13.4,13.4v114.9
								C745.6,973.5,739.6,979.5,732.2,979.5z"/>
						</g>
					</g>
				</g>
			</g>
		</g>
		<g>
			<g>
				<g>
					<g>
						<g>
							<path class="st1" d="M678.8,936.8c-7.4,0-13.4-6-13.4-13.4v-48.1c0-7.4,6-13.4,13.4-13.4c7.4,0,13.4,6,13.4,13.4v48.1
								C692.1,930.8,686.2,936.8,678.8,936.8z"/>
						</g>
					</g>
				</g>
			</g>
		</g>
		<g>
			<g>
				<g>
					<g>
						<g>
							<path class="st1" d="M745.6,854h-82.8c-7.4,0-13.4-6-13.4-13.4c0-7.4,6-13.4,13.4-13.4h82.8c7.4,0,13.4,6,13.4,13.4
								C758.9,848,753,854,745.6,854z"/>
						</g>
					</g>
				</g>
			</g>
		</g>
	</g>
	<g>
		<g>
			<g>
				<g>
					<g>
						<path class="st1" d="M748,1062.5c-3,0-6.1-1-8.6-3.1L570.3,918.1l-171.5,137c-5.8,4.6-14.2,3.7-18.8-2.1
							c-4.6-5.8-3.7-14.2,2.1-18.8l180-143.8c5-4,12-3.9,16.9,0.2l177.6,148.3c5.7,4.7,6.4,13.2,1.7,18.8
							C755.6,1060.9,751.8,1062.5,748,1062.5z"/>
					</g>
				</g>
			</g>
		</g>
	</g>
	<rect x="512" y="1123.4" class="st2" width="110.6" height="144.2"/>
</g>
<g>
	<g>
		<g>
			<g>
				<g>
					<g>
						<path class="st1" d="M4334.1,2123.5h-356.8c-7.4,0-13.4-6-13.4-13.4v-227.1c0-7.4,6-13.4,13.4-13.4c7.4,0,13.4,6,13.4,13.4
							v213.7h330.2l0.8-208.9c0-7.4,6-13.3,13.4-13.3c0,0,0,0,0.1,0c7.4,0,13.3,6,13.3,13.4l-0.9,222.2
							C4347.4,2117.6,4341.4,2123.5,4334.1,2123.5z"/>
					</g>
				</g>
			</g>
		</g>
	</g>
	<g>
		<g>
			<g>
				<g>
					<g>
						<g>
							<path class="st1" d="M4381.6,1872.7c-3,0-6.1-1-8.6-3.1l-55.9-46.9c-5.7-4.7-6.4-13.2-1.7-18.8c4.7-5.7,13.2-6.4,18.8-1.7
								l55.9,46.9c5.7,4.7,6.4,13.2,1.7,18.8C4389.2,1871.1,4385.4,1872.7,4381.6,1872.7z"/>
						</g>
					</g>
				</g>
			</g>
		</g>
		<g>
			<g>
				<g>
					<g>
						<g>
							<path class="st1" d="M3931.9,1865.9c-3.9,0-7.8-1.7-10.4-5c-4.6-5.8-3.7-14.2,2.1-18.8l225.6-181.2c5-4,12.1-3.9,17,0.2
								c0.6,0.5,58.4,49.6,108.6,91.7c5.7,4.7,6.4,13.2,1.7,18.8c-4.7,5.6-13.2,6.4-18.8,1.7c-38.9-32.6-82.4-69.4-100.3-84.6
								l-217,174.3C3937.8,1865,3934.8,1865.9,3931.9,1865.9z"/>
						</g>
					</g>
				</g>
			</g>
		</g>
		<g>
			<g>
				<g>
					<g>
						<g>
							<path class="st1" d="M4319.2,1818.9c-7.4,0-13.4-6-13.4-13.4v-114.9c0-7.4,6-13.4,13.4-13.4c7.4,0,13.4,6,13.4,13.4v114.9
								C4332.6,1813,4326.6,1818.9,4319.2,1818.9z"/>
						</g>
					</g>
				</g>
			</g>
		</g>
		<g>
			<g>
				<g>
					<g>
						<g>
							<path class="st1" d="M4265.8,1776.2c-7.4,0-13.4-6-13.4-13.4v-48.1c0-7.4,6-13.4,13.4-13.4c7.4,0,13.4,6,13.4,13.4v48.1
								C4279.1,1770.2,4273.2,1776.2,4265.8,1776.2z"/>
						</g>
					</g>
				</g>
			</g>
		</g>
		<g>
			<g>
				<g>
					<g>
						<g>
							<path class="st1" d="M4332.6,1693.4h-82.8c-7.4,0-13.4-6-13.4-13.4s6-13.4,13.4-13.4h82.8c7.4,0,13.4,6,13.4,13.4
								S4340,1693.4,4332.6,1693.4z"/>
						</g>
					</g>
				</g>
			</g>
		</g>
	</g>
	<g>
		<g>
			<g>
				<g>
					<g>
						<path class="st1" d="M4335,1901.9c-3,0-6.1-1-8.6-3.1l-169.2-141.3l-171.5,137c-5.8,4.6-14.2,3.7-18.8-2.1
							c-4.6-5.8-3.7-14.2,2.1-18.8l180-143.8c5-4,12-3.9,16.9,0.2l177.6,148.3c5.7,4.7,6.4,13.2,1.7,18.8
							C4342.6,1900.3,4338.9,1901.9,4335,1901.9z"/>
					</g>
				</g>
			</g>
		</g>
	</g>
	<rect x="4099" y="1962.8" class="st2" width="110.6" height="144.2"/>
</g>
<g>
	<path class="st0" d="M2309.8,173.4h-343.6c-4.1,0-7.5-3.4-7.5-7.5c0-19.1,7.3-37.1,20.6-50.8c12.1-12.4,27.8-20,44.8-21.7
		C2044.3,38.5,2096.3,2,2155.2,2c24.3,0,48.3,6.3,69.3,18.4c19.1,10.9,35.4,26.3,47.5,44.7c0.2,0,0.4,0,0.5,0
		c33.7,0,65.3,16.4,84.8,43.9c2.4,3.4,1.6,8.1-1.8,10.5c-3.4,2.4-8.1,1.6-10.5-1.8c-16.8-23.8-44.3-37.8-73.4-37.6
		c-1.1,0-2.2,0.1-3.2,0.1l-0.1,0c-2.7,0.1-5.3-1.2-6.7-3.6c-22.9-37.3-62.7-59.6-106.4-59.6c-54.1,0-101.7,34.5-118.6,85.9
		c-1,3-3.7,5.1-6.9,5.2c-15.1,0.5-29.2,6.7-39.8,17.5c-8.8,9.1-14.3,20.5-15.9,32.9h335.7c4.1,0,7.5,3.4,7.5,7.5
		C2317.3,170.1,2313.9,173.4,2309.8,173.4z"/>
	<path class="st0" d="M2576.8,239.7h-322.2c-4.1,0-7.5-3.4-7.5-7.5c0-15.7,6-30.5,16.9-41.7c9.7-9.9,22.3-16.1,35.9-17.7
		c16.6-44,58.6-73.2,106-73.2c38.2,0,73.2,18.8,94.3,50.4c22,0.1,42.7,8.6,58.5,23.9c15.8,15.4,24.9,36,25.6,58.1
		c0.1,2-0.7,4-2.1,5.4C2580.8,238.9,2578.8,239.7,2576.8,239.7z M2262.7,224.7h305.9c-2.1-15.2-9.2-29.2-20.4-40.1
		c-13-12.7-30.2-19.7-48.4-19.7l-0.7,0c-0.8,0-1.7,0-2.5,0.1l-0.1,0c-2.7,0.1-5.3-1.2-6.7-3.6c-18.1-29.4-49.4-46.9-83.8-46.9
		c-42.6,0-80.2,27.2-93.4,67.7c-1,3-3.7,5.1-6.9,5.2C2283.7,188,2266.1,203.9,2262.7,224.7z"/>
</g>
<g>
	<g>
		<path class="st0" d="M3938.7,1247.8h-123.2c-4.1,0-7.5-3.4-7.5-7.5c0-4.1,3.4-7.5,7.5-7.5h115.7V740.1h-418v492.7h120.6
			c4.1,0,7.5,3.4,7.5,7.5c0,4.1-3.4,7.5-7.5,7.5h-128.1c-4.1,0-7.5-3.4-7.5-7.5V732.6c0-4.1,3.4-7.5,7.5-7.5h433
			c4.1,0,7.5,3.4,7.5,7.5v507.7C3946.2,1244.5,3942.9,1247.8,3938.7,1247.8z"/>
	</g>
	<g>
		<path class="st0" d="M3879.9,740.1h-315.4c-4.1,0-7.5-3.4-7.5-7.5V405.4c0-4.1,3.4-7.5,7.5-7.5h315.4c4.1,0,7.5,3.4,7.5,7.5v327.2
			C3887.4,736.7,3884.1,740.1,3879.9,740.1z M3572,725.1h300.4V412.9H3572V725.1z"/>
	</g>
	<g>
		<g>
			<path class="st0" d="M3814.2,1284.1h-180.7c-4.1,0-7.5-3.4-7.5-7.5v-182.4c0-4.1,3.4-7.5,7.5-7.5s7.5,3.4,7.5,7.5v174.9h165.7
				v-174.9c0-4.1,3.4-7.5,7.5-7.5c4.1,0,7.5,3.4,7.5,7.5v182.4C3821.7,1280.7,3818.3,1284.1,3814.2,1284.1z"/>
			<g>
				<path class="st0" d="M3853.2,1100.8h-258.7c-4.1,0-7.5-3.4-7.5-7.5V1060c0-4.1,3.4-7.5,7.5-7.5h258.7c4.1,0,7.5,3.4,7.5,7.5
					v33.3C3860.7,1097.4,3857.3,1100.8,3853.2,1100.8z M3602,1085.8h243.7v-18.3H3602V1085.8z"/>
			</g>
		</g>
		<g>
			<path class="st0" d="M3776.3,1284.1h-106.1c-4.1,0-7.5-3.4-7.5-7.5v-151.4c0-4.1,3.4-7.5,7.5-7.5h106.1c4.1,0,7.5,3.4,7.5,7.5
				v151.4C3783.8,1280.7,3780.5,1284.1,3776.3,1284.1z M3677.8,1269.1h91.1v-136.4h-91.1V1269.1z"/>
		</g>
	</g>
	<g>
		<g>
			<path class="st0" d="M3936.9,825h-429.5c-4.1,0-7.5-3.4-7.5-7.5c0-4.1,3.4-7.5,7.5-7.5h429.5c4.1,0,7.5,3.4,7.5,7.5
				C3944.4,821.7,3941.1,825,3936.9,825z"/>
			<path class="st0" d="M3936.9,905.8h-429.5c-4.1,0-7.5-3.4-7.5-7.5c0-4.1,3.4-7.5,7.5-7.5h429.5c4.1,0,7.5,3.4,7.5,7.5
				C3944.4,902.5,3941.1,905.8,3936.9,905.8z"/>
			<path class="st0" d="M3936.9,986.6h-429.5c-4.1,0-7.5-3.4-7.5-7.5c0-4.1,3.4-7.5,7.5-7.5h429.5c4.1,0,7.5,3.4,7.5,7.5
				C3944.4,983.3,3941.1,986.6,3936.9,986.6z"/>
			<path class="st0" d="M3936.9,1067.5h-429.5c-4.1,0-7.5-3.4-7.5-7.5s3.4-7.5,7.5-7.5h429.5c4.1,0,7.5,3.4,7.5,7.5
				S3941.1,1067.5,3936.9,1067.5z"/>
			<path class="st0" d="M3632.3,1148.3h-124.8c-4.1,0-7.5-3.4-7.5-7.5s3.4-7.5,7.5-7.5h124.8c4.1,0,7.5,3.4,7.5,7.5
				S3636.4,1148.3,3632.3,1148.3z"/>
			<path class="st0" d="M3938.6,1148.3h-124.7c-4.1,0-7.5-3.4-7.5-7.5s3.4-7.5,7.5-7.5h124.7c4.1,0,7.5,3.4,7.5,7.5
				S3942.8,1148.3,3938.6,1148.3z"/>
		</g>
		<g>
			<path class="st0" d="M3883.8,1248.7c-4.1,0-7.5-3.4-7.5-7.5V736.6c0-4.1,3.4-7.5,7.5-7.5s7.5,3.4,7.5,7.5v504.6
				C3891.3,1245.3,3888,1248.7,3883.8,1248.7z"/>
			<g>
				<path class="st0" d="M3803,1064.7c-4.1,0-7.5-3.4-7.5-7.5V736.6c0-4.1,3.4-7.5,7.5-7.5s7.5,3.4,7.5,7.5v320.6
					C3810.5,1061.4,3807.2,1064.7,3803,1064.7z"/>
				<path class="st0" d="M3722.2,1064.7c-4.1,0-7.5-3.4-7.5-7.5V736.6c0-4.1,3.4-7.5,7.5-7.5s7.5,3.4,7.5,7.5v320.6
					C3729.7,1061.4,3726.3,1064.7,3722.2,1064.7z"/>
				<path class="st0" d="M3641.4,1064.7c-4.1,0-7.5-3.4-7.5-7.5V736.6c0-4.1,3.4-7.5,7.5-7.5c4.1,0,7.5,3.4,7.5,7.5v320.6
					C3648.9,1061.4,3645.5,1064.7,3641.4,1064.7z"/>
			</g>
			<path class="st0" d="M3560.6,1077.5c-4.1,0-7.5-3.4-7.5-7.5V736.6c0-4.1,3.4-7.5,7.5-7.5c4.1,0,7.5,3.4,7.5,7.5V1070
				C3568.1,1074.2,3564.7,1077.5,3560.6,1077.5z"/>
			<path class="st0" d="M3560.6,1248.7c-4.1,0-7.5-3.4-7.5-7.5V1070c0-4.1,3.4-7.5,7.5-7.5c4.1,0,7.5,3.4,7.5,7.5v171.2
				C3568.1,1245.3,3564.7,1248.7,3560.6,1248.7z"/>
		</g>
	</g>
	<g>
		<g>
			<path class="st0" d="M3878.6,494.8h-314c-4.1,0-7.5-3.4-7.5-7.5c0-4.1,3.4-7.5,7.5-7.5h314c4.1,0,7.5,3.4,7.5,7.5
				C3886.1,491.5,3882.7,494.8,3878.6,494.8z"/>
			<path class="st0" d="M3878.6,575.6h-314c-4.1,0-7.5-3.4-7.5-7.5c0-4.1,3.4-7.5,7.5-7.5h314c4.1,0,7.5,3.4,7.5,7.5
				C3886.1,572.3,3882.7,575.6,3878.6,575.6z"/>
			<path class="st0" d="M3878.6,656.5h-314c-4.1,0-7.5-3.4-7.5-7.5c0-4.1,3.4-7.5,7.5-7.5h314c4.1,0,7.5,3.4,7.5,7.5
				C3886.1,653.1,3882.7,656.5,3878.6,656.5z"/>
		</g>
		<g>
			<g>
				<path class="st0" d="M3803,753.8c-4.1,0-7.5-3.4-7.5-7.5V406.4c0-4.1,3.4-7.5,7.5-7.5s7.5,3.4,7.5,7.5v339.9
					C3810.5,750.4,3807.2,753.8,3803,753.8z"/>
				<path class="st0" d="M3722.2,753.8c-4.1,0-7.5-3.4-7.5-7.5V406.4c0-4.1,3.4-7.5,7.5-7.5s7.5,3.4,7.5,7.5v339.9
					C3729.7,750.4,3726.3,753.8,3722.2,753.8z"/>
				<path class="st0" d="M3641.4,753.8c-4.1,0-7.5-3.4-7.5-7.5V406.4c0-4.1,3.4-7.5,7.5-7.5c4.1,0,7.5,3.4,7.5,7.5v339.9
					C3648.9,750.4,3645.5,753.8,3641.4,753.8z"/>
			</g>
		</g>
	</g>
</g>
<line class="st3" x1="12.2" y1="1434.3" x2="4738.7" y2="1434.3"/>
<polyline class="st3" points="314.5,2034.3 2251.4,2034.3 1181.7,2472.6 "/>
<line class="st3" x1="2472.5" y1="2472.6" x2="3296.7" y2="2034.3"/>
<line class="st4" x1="225.6" y1="1818.1" x2="1001" y2="1818.1"/>
<line class="st4" x1="1102.9" y1="1746.4" x2="732.2" y2="1746.4"/>
<line class="st4" x1="3772.3" y1="1890.8" x2="3401.6" y2="1890.8"/>
<line class="st4" x1="1883.7" y1="1768.5" x2="3633.9" y2="1768.5"/>
<g>
	<path class="st1" d="M1549.4,1839.1h-104.1v-27.6h98.8c0.3-1.9,0.5-4.7,0.5-8.9v-269.7h-287.2c-2.2,0-3.9,0.2-5.1,0.4v269
		c0.4,2.5,4,7.6,6.4,9.1h87.4v27.6h-88.7c-17.7,0-32.7-22.4-32.7-36.5v-273.1c0-11.2,8.6-24.2,32.7-24.2h292
		c22.8,0,22.8,17.6,22.8,24.2v273.1C1572.2,1832.8,1559.8,1839.1,1549.4,1839.1"/>
	<path class="st1" d="M1390.1,1937.1c-36,0-65.2-29.3-65.2-65.2c0-36,29.3-65.2,65.2-65.2c36,0,65.2,29.3,65.2,65.2
		C1455.3,1907.8,1426,1937.1,1390.1,1937.1 M1390.1,1834.2c-20.8,0-37.6,16.9-37.6,37.6c0,20.8,16.9,37.6,37.6,37.6
		c20.8,0,37.6-16.9,37.6-37.6C1427.7,1851.1,1410.8,1834.2,1390.1,1834.2"/>
	<path class="st1" d="M1660.3,1934.3c-36,0-65.2-29.3-65.2-65.2c0-36,29.3-65.2,65.2-65.2s65.2,29.3,65.2,65.2
		C1725.5,1905.1,1696.3,1934.3,1660.3,1934.3 M1660.3,1831.5c-20.8,0-37.6,16.9-37.6,37.6c0,20.8,16.9,37.6,37.6,37.6
		c20.8,0,37.6-16.9,37.6-37.6C1698,1848.4,1681.1,1831.5,1660.3,1831.5"/>
	<path class="st1" d="M1660.6,1883.2c-3.8,0-7.4-1.5-10.2-4.3l-4-4.1l-0.1-5.9l0.1-13.7l13.8-0.1v13.8l0.5-0.5v0.5l13.2,0.1
		l-13.2-0.1V1883.2z"/>
	<path class="st1" d="M1392.6,1885.9c-7.7,0-14.3-6.5-14.3-14.1l0-5.7l8.1-8.2l5.8,0l0,13.8l0.5,0v0l13.2-0.1l-13.2,0.1v0.4l9.2,9.3
		l-9.2-9.2V1885.9L1392.6,1885.9z"/>
	<path class="st1" d="M1776.3,1817h-27.6v-121.5c-7.2-15.2-60.4-94.2-75.3-110.1h-95.4c-2,0-4.2,0.4-5.8,0.9V1817h-27.6v-234.8
		c0-16,16.8-24.4,33.4-24.4h100.1c7.6,0,12.6,0,56.4,64c41.8,61.1,41.8,67.6,41.8,71.4V1817z"/>
	<rect x="1464.6" y="1850.1" class="st1" width="121.4" height="27.6"/>
	<path class="st1" d="M1775.5,1877.7h-40.6v-27.6h35.5c0.2-1.4,0.4-3.2,0.4-5.4v-5.6h-57.9v-27.6h62.7c1,0,2,0,2.7-0.1
		c3.6-0.2,9.7-0.4,14.8,4.5c5.3,5.1,5.3,12,5.3,15.3v13.5C1798.3,1869,1786.5,1877.7,1775.5,1877.7"/>
	<rect x="1442.5" y="1811.5" class="st1" width="168.2" height="27.6"/>
	<path class="st1" d="M1321.2,1877.7h-84.3c-16,0-31.6-18.9-31.6-33v-13.5c0-5.3,2-10.2,5.6-13.7c6.7-6.5,16.1-6.2,22.9-6
		c1,0,2.1,0.1,3,0.1H1346v27.6h-109.1c-1.2,0-2.5,0-3.8-0.1c-0.1,0-0.1,0-0.2,0v5.1c0.6,1.8,3.3,4.9,5.1,6h83.2V1877.7z"/>
	<path class="st1" d="M1591.5,1694.8v-95.2l79.6-0.8l67,95.2L1591.5,1694.8z M1619.1,1627v40.2l66.1-0.4l-28.3-40.2L1619.1,1627z"/>
</g>
<line class="st3" x1="3296.7" y1="2034.3" x2="3821.7" y2="2034.3"/>
</svg>
